# xmcd
# 
# Track frame offsets:
#     150
#     19172
#     43310
#     66200
#     105922
#     123752
#     144910
#     165805
#     186852
#     216227
# 
# Disc length: 3175
# 
# Revision: 8
# Processed by: cddbd v1.5.2PL0 Copyright (c) Steve Scherf et al.
# Submitted via: fre:ac v1.0.27
# 
DISCID=800c650a
DTITLE=Les Négresses Vertes - Trabendo
DYEAR=2000
DGENRE=Folk-Rock
TTITLE0=Leila
TTITLE1=Les mégots
TTITLE2=Hasta llegar
TTITLE3=Ce pays
TTITLE4=Easy girls
TTITLE5=Chien des ports
TTITLE6=Ignacius
TTITLE7=Green magic Leila
TTITLE8=Route 99
TTITLE9=Les années sans lumière
EXTD=Virgin
EXTT0=
EXTT1=
EXTT2=
EXTT3=
EXTT4=
EXTT5=
EXTT6=
EXTT7=
EXTT8=
EXTT9=
PLAYORDER=
